<svg viewBox="0 0 148.3 107.27" xmlns="http://www.w3.org/2000/svg"><path d="m134.18 104.76h-120c-3.71 0-6.78-2.13-7-4.86l-.98-11.53c-.13-1.63 1.62-3 3.84-3h128.23c2.21 0 4 1.37 3.84 3l-.94 11.53c-.17 2.73-3.29 4.86-6.99 4.86z" fill="#fdc76d"/><rect fill="#944e49" height="17.19" rx="7.66" width="145.61" x="1.35" y="68.66"/><path d="m142.12 48.23c-6.54-26.1-34.48-45.72-68-45.72s-61.42 19.62-68 45.72z" fill="#fdc76d"/><path d="m138.77 59.59h-129.24c-2.23 0-4 2.14-4 4.78s1.82 4.79 4 4.79h76.67a2.37 2.37 0 0 1 2.37 2.36v5.68c0 2.58 1.78 4.68 4 4.68s4-2.1 4-4.68v-5.68a2.36 2.36 0 0 1 2.36-2.36h.83a2.37 2.37 0 0 1 2.37 2.36c0 3 2 5.37 4.55 5.37s4.55-2.41 4.55-5.37a2.37 2.37 0 0 1 2.37-2.36h25.25c2.24 0 4-2.14 4-4.79s-1.85-4.78-4.08-4.78z" fill="#ffef6b"/><path d="m4.52 57.4c0 3 4.61 6 11.81 6.55.62 0 1.3.08 2.07.08 6.94 0 6.94-2.29 13.88-2.29s6.96 2.26 13.93 2.26 6.95-2.29 13.9-2.29 6.96 2.29 13.89 2.29 7-2.26 14-2.26 7 2.29 13.92 2.29 7-2.29 14-2.29 7 2.29 14 2.29c.8 0 1.51 0 2.14-.09 7.2-.59 11.83-3.53 11.83-6.55v-2.78c0-1.37-2.7-2.48-6-2.48h-127.34c-3.33 0-6 1.11-6 2.48z" fill="#b0db68"/><rect fill="#ed1c24" height="5.67" rx="2.83" width="137.34" x="5.48" y="46.9"/><g fill="#ffd896"><ellipse cx="107.44" cy="22.37" rx="1.57" ry="2.5" transform="matrix(.70710678 -.70710678 .70710678 .70710678 15.65 82.53)"/><ellipse cx="54.07" cy="18.63" rx="2.5" ry="1.57" transform="matrix(.77648651 -.63013387 .63013387 .77648651 .35 38.24)"/><ellipse cx="83.67" cy="22.37" rx="1.57" ry="2.5" transform="matrix(.70710678 -.70710678 .70710678 .70710678 8.69 65.71)"/><ellipse cx="35.62" cy="33.28" rx="2.5" ry="1.57" transform="matrix(.98 -.22 .22 .98 -6.48 8.71)"/><ellipse cx="114.64" cy="38.26" rx="2.5" ry="1.57" transform="matrix(.99578894 -.09167542 .09167542 .99578894 -3.02 10.67)"/><ellipse cx="64.79" cy="38.26" rx="2.5" ry="1.57" transform="matrix(.98 -.18 .18 .98 -5.81 12.23)"/></g></svg>