<svg id="Ebene_1" data-name="Ebene 1" xmlns="http://www.w3.org/2000/svg" viewBox="0 0 332.31 174.36"><defs><style>.cls-1{fill:#75a045;}</style></defs><title>Zeichenfläche 43</title><path class="cls-1" d="M57.73,67c-.35,1.39-1,4-1.92,7.82q-.72,3.36-1.23,7.86H7.75q-.25-12.15-1.29-40Q5.79,28.32,4,3.18H39.94L37,69.09Q42,69.09,52,68A46.34,46.34,0,0,0,57.73,67Z"/><path class="cls-1" d="M191,3.18q-.72,10.44-2,36.47-.78,19.14-1.3,44Q180.88,78.35,167,67.8q-6-4.2-17.9-12.58l-.52,27.42H131.92Q131.5,72.14,130,43q-1.31-23.58-2.64-39.83h26l19.25,18.2c0-4.17-.07-7.45-.21-9.82q-.15-3.17-.62-8.38Z"/><path class="cls-1" d="M68.52,123.25a28.06,28.06,0,0,0-5.79-.88A6.84,6.84,0,0,0,58.27,124a6.49,6.49,0,0,0-2.43,5.23q0,2.48,4.46,9.57t4.44,13A17.71,17.71,0,0,1,58.17,166a23,23,0,0,1-15.47,5.33q-8.48,0-12.52-1.19c-.31-1.59-.84-4.17-1.6-7.76-.48-1.93-1.15-4.51-2-7.71a40.26,40.26,0,0,0,7.65,1.39q7.73,0,7.72-5.84a10.93,10.93,0,0,0-3.11-7.61c-3.38-3-6.76-5.94-10.14-9q-9.83-8.68-9.83-20.64,0-12.48,9.31-18.89,8.13-5.58,21.63-5.59A75.77,75.77,0,0,1,67,90.82Z"/><path class="cls-1" d="M140.33,122.06q0,14.7-9.39,23.52T106,154.39l-.62,15.79H76.9l-1.5-38.55q-.68-14.91-2.12-40.92,8.07-1.6,23.64-1.6,19,0,30.43,7.6Q140.32,105.35,140.33,122.06Zm-21.47,8.69q0-8.07-9.57-8.07a16.9,16.9,0,0,0-2.33.16l-.52,18.1Q118.86,140.53,118.86,130.75Z"/><path class="cls-1" d="M200.64,170.18H172.33l-1.91-6.89c-.79.31-18.6-1.7-18.6-1.7l-2.4,8.59h-15q3.3-12.8,10.23-42.17,4.26-19.65,7.09-37.3h31.1q1.46,8.13,7.91,37.82Q194.33,144.06,200.64,170.18Zm-32.65-17q-.87-2.75-3.11-8.9-1.33-3.42-4.08-9.42c-.68,1.71-4.41,12.21-6.28,18.05C154.21,153.92,165.4,154,168,153.21Z"/><path class="cls-1" d="M310,90.71l-2.23,32.74c-1.27-.2-4-.56-8.28-1.08-2.89-.27-6.07-.44-9.52-.51l-.77,9.88q5.7.15,18.57-.26c-.38,1.28-1,3.65-1.81,7.14-.49,2.1-.91,4.53-1.29,7.29-1-.24-3.5-.55-7.5-.93-1.87-.1-4.63-.14-8.29-.1l-.51,11.53c2.58,0,7.35-.26,14.28-.67a45.88,45.88,0,0,0,6.46-1.24q-.4,1.6-1.91,7.71c-.48,2.1-1.06,4.76-1.76,8H259.1l-1.5-40.56q-.42-13.92-2-38.91Z"/><path class="cls-1" d="M248.85,37.2a24.56,24.56,0,0,0-7.29-.91c-5.52,0-10,1.5-13.45,4.47-3.9,3.34-.75,92.1-.75,98.38A16.46,16.46,0,0,0,232,151.2q4.64,4.71,12.14,4.71a19.42,19.42,0,0,0,9.72-2.61q-.51,2.19-1.76,8c-.48,2.58-.94,5.29-1.4,8.09q-5.79,2.3-14.84,2.29c-10.94,0-20.28-1-28-8.54-8.42-8.24-15.11-60.37-15.11-73.58,0-12.21,1-67.41,8.26-74.94q11.58-12,32-12,9.84,0,14.23,1.17Z"/><path class="cls-1" d="M94.22,3.18C93.43,17.23,92,33.19,93,38.89c.37,2.21,6.88,2.33,6.44,14.17S97.05,68.8,96.61,69.58s-1,.16-.73-2,1.31-16.52,1-17.14-2.05-.78-2.49,1.09-1,15.89-1,17.6-1.61,1.56-1.47-.93-.14-16.52-.73-17.45S89.29,50.26,89,52s.29,15.74.14,17.3-1.61,2.34-1.76-.78-.58-16.67-1-17.45-1.46-1.25-1.9-.47.73,16.52.73,18.39-1.32.93-1.76-1.09-4.13-18-1.17-23.38c1.46-2.64,6-4.67,6.59-6.23.43-1.15-.9-20.83-1.74-35.08H53.36q.36,14.18,1.92,31.35,1.61,18.59,3.41,25.56Q61.8,72.24,69.3,78q8.85,6.8,25.82,6.78a79.35,79.35,0,0,0,27-4.75q0-29,.52-43.36l1.18-33.47Z"/><path class="cls-1" d="M297.06,3.18c-.15,1.87-.29,3.9-.38,6,0,0,1.2,2.53,1.41,3.2,1.48,4.7,1.26,14.45,1.19,19.27-.08,5.28-1.9,21-7.48,20.38-2.68-.3-2.28-9.4-2.25-19.14,0-8.32-.59-17.17.23-20.64a19.85,19.85,0,0,1,1.42-2.82c-.06-1.56-.16-3.85-.27-6.21H251.79q1.86,26.58,2.32,41.44l1.51,38h29.12l.52-25.76c1.28,2.51,13.35,8.59,14,8.38l.57,17.38h26.39q1-24.36,1.45-38Q329.08,15.91,330,3.18Z"/></svg>