<svg id="Ebene_1" data-name="Ebene 1" xmlns="http://www.w3.org/2000/svg" viewBox="0 0 389.98 389.93"><defs><style>.cls-1{fill:#75a045;}.cls-2{fill:#fdc76d;}.cls-3{fill:#944e49;}.cls-4{fill:#ffef6b;}.cls-5{fill:#b0db68;}.cls-6{fill:#ed1c24;}.cls-7{fill:#ffd896;}.cls-8{fill:none;stroke:#75a045;stroke-miterlimit:10;stroke-width:5px;}</style></defs><title>Zeichenfläche 12</title><path class="cls-1" d="M85.47,199.36q-.52,2.07-1.92,7.82-.72,3.36-1.24,7.86H35.49q-.26-12.15-1.3-40-.66-14.28-2.43-39.42H67.67l-3,65.91q5,0,15-1.09A48.45,48.45,0,0,0,85.47,199.36Z"/><path class="cls-1" d="M218.69,135.58Q218,146,216.67,172q-.76,19.16-1.29,44-6.78-5.33-20.64-15.89-6-4.19-17.91-12.57L176.32,215H159.66q-.42-10.5-1.91-39.63-1.31-23.58-2.65-39.83h26l19.25,18.2c0-4.17-.06-7.45-.2-9.83-.1-2.1-.31-4.9-.63-8.37Z"/><path class="cls-1" d="M96.26,255.65a28,28,0,0,0-5.8-.88A6.84,6.84,0,0,0,86,256.43a6.44,6.44,0,0,0-2.43,5.22c0,1.66,1.48,4.84,4.45,9.57s4.45,9.07,4.45,13a17.69,17.69,0,0,1-6.58,14.18,23,23,0,0,1-15.46,5.33c-5.66,0-9.83-.41-12.52-1.2-.31-1.58-.84-4.17-1.61-7.75q-.72-2.91-2-7.71A40.26,40.26,0,0,0,62,288.5q7.71,0,7.72-5.85a10.92,10.92,0,0,0-3.11-7.6q-5.07-4.46-10.14-8.95-9.83-8.69-9.83-20.64,0-12.48,9.31-18.89Q64,221,77.53,221a76.36,76.36,0,0,1,17.17,2.23Z"/><path class="cls-1" d="M168.07,254.46q0,14.68-9.39,23.52t-24.91,8.81l-.62,15.78H104.64L103.14,264q-.67-14.91-2.12-40.92,8.07-1.61,23.64-1.61,19,0,30.42,7.61Q168.07,237.75,168.07,254.46Zm-21.47,8.69c0-5.39-3.2-8.07-9.57-8.07a18.46,18.46,0,0,0-2.33.15l-.52,18.11Q146.6,272.94,146.6,263.15Z"/><path class="cls-1" d="M228.37,302.57h-28.3l-1.91-6.88c-.79.31-18.61-1.71-18.61-1.71l-2.4,8.59h-15q3.32-12.78,10.24-42.16,4.25-19.67,7.09-37.3h31.09q1.45,8.12,7.92,37.81Q222.06,276.44,228.37,302.57Zm-32.64-17q-.89-2.75-3.11-8.9-1.34-3.42-4.09-9.42c-.68,1.71-4.4,12.21-6.27,18C181.94,286.32,193.13,286.36,195.73,285.61Z"/><path class="cls-1" d="M337.69,223.11l-2.22,32.74c-1.28-.2-4-.57-8.28-1.08-2.89-.28-6.07-.45-9.52-.52l-.77,9.88q5.69.17,18.57-.25c-.38,1.27-1,3.65-1.81,7.14q-.74,3.15-1.3,7.29a72.33,72.33,0,0,0-7.5-.93c-1.86-.11-4.62-.14-8.28-.11l-.51,11.54q3.87,0,14.28-.67a46.58,46.58,0,0,0,6.46-1.25c-.27,1.08-.91,3.64-1.91,7.72q-.72,3.15-1.76,8H286.83L285.33,262q-.4-13.9-2-38.9Z"/><path class="cls-1" d="M276.59,169.59a24.59,24.59,0,0,0-7.29-.9q-8.28,0-13.45,4.47c-3.9,3.34-.76,92.09-.76,98.37a16.44,16.44,0,0,0,4.63,12.06q4.63,4.73,12.13,4.72a19.43,19.43,0,0,0,9.73-2.61c-.35,1.45-.93,4.14-1.76,8-.48,2.59-.95,5.3-1.4,8.1q-5.79,2.28-14.85,2.28c-10.93,0-20.28-1-28-8.54-8.42-8.23-15.1-60.36-15.1-73.57,0-12.21,1-67.42,8.25-74.94q11.59-12,32-12,9.82,0,14.23,1.18Z"/><path class="cls-1" d="M122,135.58c-.8,14-2.22,30-1.27,35.7.36,2.22,6.88,2.34,6.44,14.18s-2.35,15.74-2.78,16.52-1,.15-.74-2,1.32-16.51,1-17.14-2-.78-2.49,1.09-1,15.9-1,17.61-1.61,1.56-1.46-.93-.15-16.52-.73-17.46-1.91-.46-2.2,1.25.29,15.74.15,17.3-1.61,2.33-1.76-.78-.58-16.67-1-17.45-1.47-1.25-1.91-.47.74,16.52.74,18.39-1.32.93-1.76-1.1-4.13-18-1.17-23.37c1.46-2.65,6-4.67,6.59-6.23.43-1.15-.9-20.83-1.74-35.08H81.1q.36,14.17,1.91,31.35,1.62,18.57,3.42,25.56,3.1,12.15,10.61,17.89,8.83,6.78,25.81,6.78a79.61,79.61,0,0,0,27-4.75q0-29,.52-43.36l1.18-33.47Z"/><path class="cls-1" d="M324.79,135.58c-.15,1.86-.28,3.9-.37,6,0,0,1.2,2.53,1.41,3.2,1.47,4.69,1.26,14.45,1.19,19.27-.08,5.28-1.9,21-7.48,20.38-2.68-.3-2.28-9.4-2.26-19.14,0-8.32-.58-17.18.24-20.65a19.62,19.62,0,0,1,1.42-2.81c-.07-1.57-.16-3.85-.27-6.21H279.53q1.86,26.58,2.32,41.43l1.5,38h29.13l.52-25.76c1.28,2.51,13.35,8.59,14,8.37l.57,17.39h26.39q1-24.36,1.45-38,1.44-28.71,2.32-41.43Z"/><path class="cls-2" d="M255.87,130.33h-120c-3.71,0-6.78-2.13-7-4.86l-.93-11.53c-.14-1.63,1.62-3,3.84-3H260c2.22,0,4,1.37,3.85,3l-.94,11.53C262.64,128.2,259.57,130.33,255.87,130.33Z"/><rect class="cls-3" x="122.46" y="94.23" width="145.61" height="17.19" rx="7.66" ry="7.66"/><path class="cls-2" d="M263.81,73.8c-6.55-26.1-34.48-45.72-68-45.72s-61.42,19.62-68,45.72Z"/><path class="cls-4" d="M260.46,85.16H131.22c-2.23,0-4,2.14-4,4.78s1.82,4.79,4,4.79h76.67a2.36,2.36,0,0,1,2.37,2.36v5.68c0,2.57,1.78,4.68,4,4.68s4-2.11,4-4.68V97.09a2.36,2.36,0,0,1,2.36-2.36h.83a2.36,2.36,0,0,1,2.37,2.36h0c0,3,2,5.37,4.55,5.37s4.55-2.42,4.55-5.37h0a2.36,2.36,0,0,1,2.36-2.36h25.26c2.24,0,4.05-2.15,4.05-4.79S262.7,85.16,260.46,85.16Z"/><path class="cls-5" d="M126.21,83c0,3,4.61,6,11.81,6.55.61,0,1.3.08,2.07.08,6.94,0,6.94-2.29,13.88-2.29s7,2.29,13.93,2.29,6.95-2.29,13.9-2.29,7,2.29,13.92,2.29,7-2.29,13.94-2.29,7,2.29,13.92,2.29,7-2.29,13.95-2.29,7,2.29,14,2.29c.8,0,1.5,0,2.14-.09,7.2-.6,11.83-3.54,11.83-6.55V80.18c0-1.37-2.7-2.48-6-2.48H132.24c-3.33,0-6,1.11-6,2.48Z"/><rect class="cls-6" x="127.49" y="72.47" width="137.34" height="5.67" rx="2.83" ry="2.83"/><ellipse class="cls-7" cx="229.14" cy="47.27" rx="1.57" ry="2.5" transform="translate(33.69 175.87) rotate(-45)"/><ellipse class="cls-7" cx="175.77" cy="43.53" rx="2.5" ry="1.57" transform="matrix(0.78, -0.63, 0.63, 0.78, 11.86, 120.5)"/><ellipse class="cls-7" cx="205.36" cy="47.27" rx="1.57" ry="2.5" transform="translate(26.72 159.06) rotate(-45)"/><ellipse class="cls-7" cx="157.31" cy="58.18" rx="2.5" ry="1.57" transform="translate(-8.98 36.27) rotate(-12.79)"/><ellipse class="cls-7" cx="236.34" cy="63.16" rx="2.5" ry="1.57" transform="translate(-4.79 21.92) rotate(-5.26)"/><ellipse class="cls-7" cx="186.48" cy="63.16" rx="2.5" ry="1.57" transform="translate(-8.3 34.45) rotate(-10.33)"/><circle class="cls-8" cx="194.99" cy="194.96" r="182.01"/></svg>