<svg id="Ebene_1" data-name="Ebene 1" xmlns="http://www.w3.org/2000/svg" viewBox="0 0 332.31 174.36"><defs><style>.cls-1{fill:#75a045;}</style></defs><title>Zeichenfläche 43</title><path class="cls-1" d="M56.89,67c-.35,1.39-1,4-1.92,7.82q-.72,3.36-1.23,7.86H6.91q-.25-12.15-1.3-40Q4.95,28.32,3.19,3.18h35.9l-3,65.91q5,0,15.06-1.09A46.34,46.34,0,0,0,56.89,67Z"/><path class="cls-1" d="M190.11,3.18q-.72,10.44-2,36.47-.78,19.14-1.3,44Q180,78.35,166.16,67.8q-6-4.2-17.9-12.58l-.52,27.42H131.08q-.42-10.5-1.91-39.63-1.3-23.58-2.64-39.83h26l19.25,18.2c0-4.17-.07-7.45-.21-9.82q-.15-3.17-.63-8.38Z"/><path class="cls-1" d="M67.68,123.25a28,28,0,0,0-5.8-.88A6.84,6.84,0,0,0,57.43,124,6.49,6.49,0,0,0,55,129.26q0,2.48,4.46,9.57t4.44,13A17.71,17.71,0,0,1,57.33,166a23,23,0,0,1-15.47,5.33q-8.47,0-12.52-1.19c-.31-1.59-.84-4.17-1.61-7.76-.48-1.93-1.15-4.51-2-7.71a40.26,40.26,0,0,0,7.65,1.39q7.71,0,7.72-5.84A10.93,10.93,0,0,0,38,142.65c-3.38-3-6.76-5.94-10.14-9Q18,125,18,113.06q0-12.48,9.31-18.89Q35.45,88.59,49,88.58a75.77,75.77,0,0,1,17.17,2.24Z"/><path class="cls-1" d="M139.49,122.06q0,14.7-9.39,23.52t-24.91,8.81l-.62,15.79H76.06l-1.5-38.55q-.68-14.91-2.12-40.92,8.07-1.6,23.64-1.6,19,0,30.43,7.6Q139.48,105.35,139.49,122.06ZM118,130.75q0-8.07-9.57-8.07a16.9,16.9,0,0,0-2.33.16l-.52,18.1Q118,140.53,118,130.75Z"/><path class="cls-1" d="M199.8,170.18H171.49l-1.91-6.89c-.79.31-18.6-1.7-18.6-1.7l-2.4,8.59h-15q3.31-12.8,10.24-42.17,4.26-19.65,7.09-37.3H182q1.45,8.13,7.91,37.82Q193.5,144.06,199.8,170.18Zm-32.65-17q-.87-2.75-3.11-8.9-1.33-3.42-4.08-9.42c-.69,1.71-4.41,12.21-6.28,18.05C153.37,153.92,164.56,154,167.15,153.21Z"/><path class="cls-1" d="M309.12,90.71l-2.23,32.74q-1.92-.3-8.28-1.08c-2.89-.27-6.07-.44-9.52-.51l-.77,9.88q5.69.15,18.57-.26c-.38,1.28-1,3.65-1.81,7.14q-.74,3.15-1.29,7.29-1.52-.36-7.5-.93c-1.87-.1-4.63-.14-8.29-.1l-.51,11.53c2.58,0,7.35-.26,14.28-.67a45.88,45.88,0,0,0,6.46-1.24q-.41,1.6-1.91,7.71-.72,3.15-1.76,8h-46.3l-1.51-40.56q-.4-13.92-2-38.91Z"/><path class="cls-1" d="M248,37.2a24.56,24.56,0,0,0-7.29-.91c-5.52,0-10,1.5-13.45,4.47-3.9,3.34-.75,92.1-.75,98.38a16.46,16.46,0,0,0,4.62,12.06q4.63,4.71,12.14,4.71A19.42,19.42,0,0,0,253,153.3q-.51,2.19-1.76,8c-.48,2.58-.94,5.29-1.4,8.09q-5.79,2.3-14.85,2.29c-10.93,0-20.28-1-28-8.54-8.42-8.24-15.11-60.37-15.11-73.58,0-12.21,1-67.41,8.26-74.94q11.58-12,32-12,9.84,0,14.23,1.17Z"/><path class="cls-1" d="M93.38,3.18c-.79,14.05-2.22,30-1.27,35.71.36,2.21,6.88,2.33,6.44,14.17S96.21,68.8,95.77,69.58s-1,.16-.73-2,1.31-16.52,1-17.14-2-.78-2.49,1.09-1,15.89-1,17.6-1.61,1.56-1.47-.93-.14-16.52-.73-17.45-1.9-.47-2.2,1.24.3,15.74.15,17.3-1.61,2.34-1.76-.78S86,51.82,85.52,51s-1.47-1.25-1.9-.47.73,16.52.73,18.39-1.32.93-1.76-1.09-4.13-18-1.17-23.38c1.46-2.64,6-4.67,6.59-6.23.43-1.15-.9-20.83-1.74-35.08H52.52q.36,14.18,1.92,31.35Q56,53.12,57.85,60.09,61,72.24,68.46,78q8.83,6.8,25.81,6.78a79.36,79.36,0,0,0,27-4.75q0-29,.52-43.36L123,3.18Z"/><path class="cls-1" d="M296.22,3.18c-.15,1.87-.29,3.9-.38,6,0,0,1.2,2.53,1.41,3.2,1.48,4.7,1.26,14.45,1.19,19.27-.08,5.28-1.9,21-7.48,20.38-2.68-.3-2.28-9.4-2.26-19.14,0-8.32-.58-17.17.24-20.64a19.85,19.85,0,0,1,1.42-2.82c-.06-1.56-.16-3.85-.27-6.21H251q1.86,26.58,2.32,41.44l1.51,38H283.9l.52-25.76c1.28,2.51,13.35,8.59,14,8.38L299,82.64h26.39q1-24.36,1.45-38,1.44-28.71,2.32-41.44Z"/></svg>