<svg id="Ebene_1" data-name="Ebene 1" xmlns="http://www.w3.org/2000/svg" viewBox="0 0 332.31 284.36"><defs><style>.cls-1{fill:#75a045;}.cls-2{fill:#fdc76d;}.cls-3{fill:#944e49;}.cls-4{fill:#ffef6b;}.cls-5{fill:#b0db68;}.cls-6{fill:#ed1c24;}.cls-7{fill:#ffd896;}</style></defs><title>Zeichenfläche 32</title><path class="cls-1" d="M56.89,177.39q-.53,2.07-1.92,7.82-.72,3.36-1.24,7.86H6.91q-.25-12.15-1.3-40-.66-14.28-2.43-39.42H39.09l-3,65.91q5,0,15-1.09A48.45,48.45,0,0,0,56.89,177.39Z"/><path class="cls-1" d="M190.11,113.61q-.72,10.44-2,36.46-.76,19.16-1.29,44-6.78-5.33-20.64-15.89-6-4.18-17.91-12.57l-.51,27.42H131.08q-.42-10.5-1.91-39.63-1.3-23.58-2.65-39.83h26l19.25,18.2c0-4.17-.06-7.45-.2-9.83-.1-2.1-.31-4.9-.63-8.37Z"/><path class="cls-1" d="M67.67,233.68a28,28,0,0,0-5.79-.88,6.82,6.82,0,0,0-4.45,1.66A6.46,6.46,0,0,0,55,239.68c0,1.66,1.48,4.84,4.45,9.57s4.45,9.07,4.45,13a17.69,17.69,0,0,1-6.58,14.18,23,23,0,0,1-15.46,5.33c-5.66,0-9.83-.41-12.52-1.2-.31-1.58-.84-4.17-1.61-7.75-.48-1.93-1.15-4.51-2-7.71a40.26,40.26,0,0,0,7.65,1.39q7.71,0,7.72-5.85a10.92,10.92,0,0,0-3.11-7.6q-5.07-4.46-10.14-9Q18,235.45,18,223.49,18,211,27.32,204.6,35.45,199,49,199a76.36,76.36,0,0,1,17.17,2.23Z"/><path class="cls-1" d="M139.49,232.49q0,14.69-9.39,23.52t-24.91,8.81l-.62,15.78H76.06l-1.5-38.54q-.68-14.91-2.12-40.92,8.07-1.6,23.64-1.6,19,0,30.42,7.6Q139.49,215.78,139.49,232.49ZM118,241.18c0-5.38-3.2-8.07-9.57-8.07a18.46,18.46,0,0,0-2.33.15l-.52,18.11Q118,251,118,241.18Z"/><path class="cls-1" d="M199.79,280.6h-28.3l-1.91-6.88C168.79,274,151,272,151,272l-2.4,8.58h-15q3.31-12.78,10.24-42.16,4.24-19.66,7.09-37.3H182q1.45,8.13,7.92,37.81Q193.48,254.48,199.79,280.6Zm-32.64-17q-.89-2.75-3.11-8.9-1.33-3.42-4.09-9.42c-.68,1.71-4.41,12.21-6.27,18C153.36,264.35,164.55,264.39,167.15,263.64Z"/><path class="cls-1" d="M309.11,201.14l-2.22,32.74q-1.92-.3-8.28-1.08c-2.89-.27-6.07-.45-9.52-.51l-.77,9.87q5.69.17,18.57-.25c-.39,1.28-1,3.65-1.81,7.14q-.74,3.15-1.3,7.29a72.33,72.33,0,0,0-7.5-.93c-1.86-.11-4.62-.14-8.28-.11l-.51,11.54q3.87,0,14.28-.67a46.58,46.58,0,0,0,6.46-1.25c-.27,1.08-.91,3.64-1.91,7.72q-.72,3.15-1.76,8H258.25L256.75,240q-.4-13.9-2-38.9Z"/><path class="cls-1" d="M248,147.62a24.64,24.64,0,0,0-7.29-.9c-5.52,0-10,1.5-13.45,4.47-3.9,3.34-.76,92.09-.76,98.38a16.43,16.43,0,0,0,4.63,12.05q4.63,4.72,12.13,4.72a19.43,19.43,0,0,0,9.73-2.61c-.35,1.45-.93,4.14-1.76,8-.48,2.59-1,5.3-1.4,8.1q-5.79,2.28-14.85,2.28c-10.93,0-20.28-1-28-8.53-8.42-8.24-15.1-60.37-15.1-73.58,0-12.21,1-67.42,8.25-74.94q11.6-12,32-12c6.55,0,11.3.38,14.23,1.17Z"/><path class="cls-1" d="M93.38,113.61c-.8,14-2.22,30-1.27,35.7.36,2.22,6.88,2.34,6.44,14.18S96.2,179.23,95.77,180s-1,.16-.74-2,1.32-16.51,1-17.14-2-.78-2.49,1.09-1,15.9-1,17.61-1.61,1.56-1.46-.93-.15-16.52-.73-17.45-1.91-.47-2.2,1.24.29,15.74.15,17.3-1.61,2.34-1.76-.78-.58-16.67-1-17.45-1.47-1.25-1.91-.47.74,16.52.74,18.39-1.32.93-1.76-1.09-4.13-18-1.17-23.38c1.46-2.65,6-4.67,6.59-6.23.43-1.15-.9-20.83-1.74-35.08H52.52q.36,14.17,1.91,31.35,1.62,18.57,3.42,25.56,3.1,12.15,10.61,17.89,8.83,6.79,25.81,6.78a79.61,79.61,0,0,0,27-4.75q0-29,.52-43.36L123,113.61Z"/><path class="cls-1" d="M296.21,113.61c-.15,1.86-.28,3.9-.37,6,0,0,1.2,2.53,1.41,3.2,1.47,4.69,1.26,14.45,1.19,19.27-.08,5.28-1.9,21-7.48,20.38-2.68-.3-2.28-9.4-2.26-19.14,0-8.32-.58-17.18.24-20.64a19.31,19.31,0,0,1,1.42-2.82c-.07-1.57-.16-3.85-.27-6.21H250.94q1.88,26.58,2.33,41.43l1.5,38H283.9l.52-25.76c1.28,2.51,13.35,8.59,14,8.37l.56,17.39h26.4q1-24.36,1.45-38,1.44-28.71,2.32-41.43Z"/><path class="cls-2" d="M226.75,104.45h-120c-3.71,0-6.78-2.13-7-4.86l-.93-11.52c-.14-1.63,1.62-3,3.84-3H230.84c2.22,0,4,1.38,3.84,3l-.93,11.52C233.53,102.32,230.46,104.45,226.75,104.45Z"/><rect class="cls-3" x="93.35" y="68.35" width="145.61" height="17.19" rx="7.66" ry="7.66"/><path class="cls-2" d="M234.7,47.92c-6.55-26.1-34.49-45.71-68-45.71s-61.42,19.61-68,45.71Z"/><path class="cls-4" d="M231.35,59.29H102.11c-2.24,0-4,2.14-4,4.78s1.81,4.78,4,4.78h79V76.9c0,2.57,1.78,4.67,4,4.67s4-2.1,4-4.67V68.85h5.56v2.37c0,3,2.05,5.37,4.55,5.37s4.55-2.42,4.55-5.37V68.85h27.62c2.24,0,4.05-2.14,4.05-4.78S233.59,59.29,231.35,59.29Z"/><path class="cls-5" d="M97.1,57.09c0,3,4.61,6,11.8,6.55.62,0,1.31.08,2.08.08,6.94,0,6.94-2.29,13.88-2.29s7,2.29,13.93,2.29,7-2.29,13.9-2.29,7,2.29,13.92,2.29,7-2.29,13.94-2.29,7,2.29,13.92,2.29,7-2.29,13.95-2.29,7,2.29,14,2.29c.8,0,1.5,0,2.14-.08,7.2-.6,11.83-3.54,11.83-6.56V54.31c0-1.37-2.7-2.48-6-2.48H103.13c-3.33,0-6,1.11-6,2.48Z"/><rect class="cls-6" x="98.38" y="46.59" width="137.34" height="5.67" rx="2.83" ry="2.83"/><ellipse class="cls-7" cx="200.03" cy="21.4" rx="1.57" ry="2.5" transform="translate(43.45 147.71) rotate(-45)"/><ellipse class="cls-7" cx="146.66" cy="17.65" rx="2.5" ry="1.57" transform="translate(21.66 96.37) rotate(-39.06)"/><ellipse class="cls-7" cx="176.25" cy="21.4" rx="1.57" ry="2.5" transform="translate(36.49 130.89) rotate(-45)"/><ellipse class="cls-7" cx="128.2" cy="32.31" rx="2.5" ry="1.57" transform="translate(-3.97 29.18) rotate(-12.79)"/><ellipse class="cls-7" cx="207.23" cy="37.29" rx="2.5" ry="1.57" transform="translate(-2.55 19.15) rotate(-5.26)"/><ellipse class="cls-7" cx="157.37" cy="37.29" rx="2.5" ry="1.57" transform="translate(-4.14 28.81) rotate(-10.33)"/></svg>