<svg viewBox="0 0 332.31 284.36" xmlns="http://www.w3.org/2000/svg"><g fill="#75a045"><path d="m56.89 177.39q-.53 2.07-1.92 7.82-.72 3.36-1.24 7.86h-46.82q-.25-12.15-1.3-40-.66-14.28-2.43-39.42h35.91l-3 65.91q5 0 15-1.09a48.45 48.45 0 0 0 5.8-1.08z"/><path d="m190.11 113.61q-.72 10.44-2 36.46-.76 19.16-1.29 44-6.78-5.33-20.64-15.89-6-4.18-17.91-12.57l-.51 27.42h-16.68q-.42-10.5-1.91-39.63-1.3-23.58-2.65-39.83h26l19.25 18.2c0-4.17-.06-7.45-.2-9.83-.1-2.1-.31-4.9-.63-8.37z"/><path d="m67.67 233.68a28 28 0 0 0 -5.79-.88 6.82 6.82 0 0 0 -4.45 1.66 6.46 6.46 0 0 0 -2.43 5.22c0 1.66 1.48 4.84 4.45 9.57s4.45 9.07 4.45 13a17.69 17.69 0 0 1 -6.58 14.18 23 23 0 0 1 -15.46 5.33c-5.66 0-9.83-.41-12.52-1.2-.31-1.58-.84-4.17-1.61-7.75-.48-1.93-1.15-4.51-2-7.71a40.26 40.26 0 0 0 7.65 1.39q7.71 0 7.72-5.85a10.92 10.92 0 0 0 -3.11-7.6q-5.07-4.46-10.14-9-9.85-8.59-9.85-20.55 0-12.49 9.32-18.89 8.13-5.6 21.68-5.6a76.36 76.36 0 0 1 17.17 2.23z"/><path d="m139.49 232.49q0 14.69-9.39 23.52t-24.91 8.81l-.62 15.78h-28.51l-1.5-38.54q-.68-14.91-2.12-40.92 8.07-1.6 23.64-1.6 19 0 30.42 7.6 12.99 8.64 12.99 25.35zm-21.49 8.69c0-5.38-3.2-8.07-9.57-8.07a18.46 18.46 0 0 0 -2.33.15l-.52 18.11q12.42-.37 12.42-10.19z"/><path d="m199.79 280.6h-28.3l-1.91-6.88c-.79.28-18.58-1.72-18.58-1.72l-2.4 8.58h-15q3.31-12.78 10.24-42.16 4.24-19.66 7.09-37.3h31.07q1.45 8.13 7.92 37.81 3.56 15.55 9.87 41.67zm-32.64-17q-.89-2.75-3.11-8.9-1.33-3.42-4.09-9.42c-.68 1.71-4.41 12.21-6.27 18-.32 1.07 10.87 1.11 13.47.36z"/><path d="m309.11 201.14-2.22 32.74q-1.92-.3-8.28-1.08c-2.89-.27-6.07-.45-9.52-.51l-.77 9.87q5.69.17 18.57-.25c-.39 1.28-1 3.65-1.81 7.14q-.74 3.15-1.3 7.29a72.33 72.33 0 0 0 -7.5-.93c-1.86-.11-4.62-.14-8.28-.11l-.51 11.54q3.87 0 14.28-.67a46.58 46.58 0 0 0 6.46-1.25c-.27 1.08-.91 3.64-1.91 7.72q-.72 3.15-1.76 8h-46.31l-1.5-40.64q-.4-13.9-2-38.9z"/><path d="m248 147.62a24.64 24.64 0 0 0 -7.29-.9c-5.52 0-10 1.5-13.45 4.47-3.9 3.34-.76 92.09-.76 98.38a16.43 16.43 0 0 0 4.63 12.05q4.63 4.72 12.13 4.72a19.43 19.43 0 0 0 9.73-2.61c-.35 1.45-.93 4.14-1.76 8-.48 2.59-1 5.3-1.4 8.1q-5.79 2.28-14.85 2.28c-10.93 0-20.28-1-28-8.53-8.42-8.24-15.1-60.37-15.1-73.58 0-12.21 1-67.42 8.25-74.94q11.6-12 32-12c6.55 0 11.3.38 14.23 1.17z"/><path d="m93.38 113.61c-.8 14-2.22 30-1.27 35.7.36 2.22 6.88 2.34 6.44 14.18s-2.35 15.74-2.78 16.51-1 .16-.74-2 1.32-16.51 1-17.14-2-.78-2.49 1.09-1 15.9-1 17.61-1.61 1.56-1.46-.93-.15-16.52-.73-17.45-1.91-.47-2.2 1.24.29 15.74.15 17.3-1.61 2.34-1.76-.78-.58-16.67-1-17.45-1.47-1.25-1.91-.47.74 16.52.74 18.39-1.32.93-1.76-1.09-4.13-18-1.17-23.38c1.46-2.65 6-4.67 6.59-6.23.43-1.15-.9-20.83-1.74-35.08h-33.77q.36 14.17 1.91 31.35 1.62 18.57 3.42 25.56 3.1 12.15 10.61 17.89 8.83 6.79 25.81 6.78a79.61 79.61 0 0 0 27-4.75q0-29 .52-43.36l1.21-33.49z"/><path d="m296.21 113.61c-.15 1.86-.28 3.9-.37 6 0 0 1.2 2.53 1.41 3.2 1.47 4.69 1.26 14.45 1.19 19.27-.08 5.28-1.9 21-7.48 20.38-2.68-.3-2.28-9.4-2.26-19.14 0-8.32-.58-17.18.24-20.64a19.31 19.31 0 0 1 1.42-2.82c-.07-1.57-.16-3.85-.27-6.21h-39.15q1.88 26.58 2.33 41.43l1.5 38h29.13l.52-25.76c1.28 2.51 13.35 8.59 14 8.37l.56 17.39h26.4q1-24.36 1.45-38 1.44-28.71 2.32-41.43z"/></g><path d="m226.18 104.45h-120c-3.71 0-6.78-2.13-7-4.86l-.98-11.52c-.13-1.63 1.62-3 3.84-3h128.23c2.21 0 4 1.38 3.84 3l-.94 11.52c-.17 2.73-3.29 4.86-6.99 4.86z" fill="#fdc76d"/><rect fill="#944e49" height="17.19" rx="7.66" width="145.61" x="93.35" y="68.35"/><path d="m234.12 47.92c-6.54-26.1-34.48-45.71-68-45.71s-61.42 19.61-68 45.71z" fill="#fdc76d"/><path d="m230.77 59.29h-129.24c-2.23 0-4 2.14-4 4.78s1.82 4.78 4 4.78h76.67a2.37 2.37 0 0 1 2.37 2.37v5.68c0 2.57 1.78 4.67 4 4.67s4-2.1 4-4.67v-5.68a2.37 2.37 0 0 1 2.36-2.37h.84a2.37 2.37 0 0 1 2.36 2.37c0 3 2 5.37 4.55 5.37s4.55-2.42 4.55-5.37a2.37 2.37 0 0 1 2.37-2.37h25.25c2.24 0 4-2.14 4-4.78s-1.85-4.78-4.08-4.78z" fill="#ffef6b"/><path d="m96.52 57.09c0 3 4.61 6 11.81 6.55.62 0 1.3.08 2.07.08 6.94 0 6.94-2.29 13.88-2.29s7 2.29 13.93 2.29 6.95-2.29 13.9-2.29 7 2.29 13.92 2.29 7-2.29 13.94-2.29 7 2.29 13.92 2.29 7-2.29 14-2.29 7 2.29 14 2.29c.8 0 1.51 0 2.14-.08 7.2-.6 11.83-3.54 11.83-6.56v-2.77c0-1.37-2.7-2.48-6-2.48h-127.31c-3.33 0-6 1.11-6 2.48z" fill="#b0db68"/><rect fill="#ed1c24" height="5.67" rx="2.83" width="137.34" x="97.48" y="46.59"/><g fill="#ffd896"><ellipse cx="199.44" cy="22.07" rx="1.57" ry="2.5" transform="matrix(.70710678 -.70710678 .70710678 .70710678 42.81 147.49)"/><ellipse cx="146.07" cy="18.32" rx="2.5" ry="1.57" transform="matrix(.77648651 -.63013387 .63013387 .77648651 21.11 96.15)"/><ellipse cx="175.67" cy="22.07" rx="1.57" ry="2.5" transform="matrix(.70710678 -.70710678 .70710678 .70710678 35.85 130.68)"/><ellipse cx="127.62" cy="32.97" rx="2.5" ry="1.57" transform="matrix(.97518801 -.2213783 .2213783 .97518801 -4.13 29.07)"/><ellipse cx="206.65" cy="37.96" rx="2.5" ry="1.57" transform="matrix(.99578894 -.09167542 .09167542 .99578894 -2.61 19.09)"/><ellipse cx="156.79" cy="37.96" rx="2.5" ry="1.57" transform="matrix(.98379128 -.17931735 .17931735 .98379128 -4.26 28.72)"/></g></svg>