<svg id="Ebene_1" data-name="Ebene 1" xmlns="http://www.w3.org/2000/svg" viewBox="0 0 148.3 107.27"><defs><style>.cls-1{fill:#fdc76d;}.cls-2{fill:#944e49;}.cls-3{fill:#ffef6b;}.cls-4{fill:#b0db68;}.cls-5{fill:#ed1c24;}.cls-6{fill:#ffd896;}</style></defs><title>Zeichenfläche 44</title><path class="cls-1" d="M134.75,104.76h-120c-3.71,0-6.78-2.13-7-4.86L6.78,88.37c-.14-1.63,1.62-3,3.84-3H138.84c2.22,0,4,1.37,3.84,3l-.93,11.53C141.53,102.63,138.46,104.76,134.75,104.76Z"/><rect class="cls-2" x="1.35" y="68.66" width="145.61" height="17.19" rx="7.66" ry="7.66"/><path class="cls-1" d="M142.7,48.23c-6.55-26.1-34.49-45.72-68-45.72s-61.42,19.62-68,45.72Z"/><path class="cls-3" d="M139.35,59.59H10.11c-2.24,0-4,2.14-4,4.78s1.81,4.79,4.05,4.79h79v8c0,2.58,1.78,4.68,4,4.68s4-2.1,4-4.68v-8h5.56v2.36c0,3,2.05,5.37,4.55,5.37s4.55-2.41,4.55-5.37V69.16h27.62c2.24,0,4.05-2.14,4.05-4.79S141.59,59.59,139.35,59.59Z"/><path class="cls-4" d="M5.1,57.4c0,3,4.61,6,11.8,6.55.62,0,1.31.08,2.08.08,6.94,0,6.94-2.29,13.88-2.29S39.82,64,46.79,64s7-2.29,13.9-2.29S67.65,64,74.61,64s7-2.29,13.94-2.29,7,2.29,13.92,2.29,7-2.29,14-2.29,7,2.29,14,2.29c.8,0,1.5,0,2.14-.09,7.2-.59,11.83-3.53,11.83-6.55V54.61c0-1.37-2.7-2.48-6-2.48H11.13c-3.33,0-6,1.11-6,2.48Z"/><rect class="cls-5" x="6.38" y="46.9" width="137.34" height="5.67" rx="2.83" ry="2.83"/><ellipse class="cls-6" cx="108.02" cy="21.7" rx="1.57" ry="2.5" transform="translate(16.29 82.74) rotate(-45)"/><ellipse class="cls-6" cx="54.66" cy="17.96" rx="2.5" ry="1.57" transform="translate(0.9 38.46) rotate(-39.06)"/><ellipse class="cls-6" cx="84.25" cy="21.7" rx="1.57" ry="2.5" transform="translate(9.33 65.93) rotate(-45)"/><ellipse class="cls-6" cx="36.2" cy="32.61" rx="2.5" ry="1.57" transform="translate(-6.32 8.82) rotate(-12.79)"/><ellipse class="cls-6" cx="115.23" cy="37.59" rx="2.5" ry="1.57" transform="translate(-2.96 10.72) rotate(-5.26)"/><ellipse class="cls-6" cx="65.37" cy="37.59" rx="2.5" ry="1.57" transform="translate(-5.68 12.33) rotate(-10.33)"/></svg>